<svg width="60" height="54" viewBox="0 0 60 54" fill="none" xmlns="http://www.w3.org/2000/svg">
<path d="M29.8708 0.1875C23.499 0.1875 18.5462 0.1875 14.6908 0.6C10.7913 1.02075 7.703 1.8925 5.239 3.8615C2.709 5.8855 1.5265 8.51725 0.96825 11.8365C0.4375 15.0045 0.4375 19.036 0.4375 24.063V24.5662C0.4375 29.4667 0.4375 32.8575 0.9875 35.3848C1.2845 36.746 1.752 37.9285 2.48625 39.023C3.21225 40.101 4.13625 41.0085 5.239 41.8885C6.97425 43.2772 9.02025 44.116 11.4375 44.6385V51.75C11.4378 52.1114 11.5331 52.4663 11.7137 52.7792C11.8944 53.0922 12.1541 53.3522 12.4668 53.5332C12.7795 53.7142 13.1344 53.8099 13.4957 53.8107C13.8571 53.8114 14.2123 53.7172 14.5258 53.5375C16.1373 52.6162 17.5645 51.6125 18.8708 50.6665L19.7067 50.0588C20.6369 49.3624 21.587 48.6929 22.5557 48.0513C24.8768 46.5443 27.0933 45.5625 30 45.5625H30.1292C36.501 45.5625 41.4537 45.5625 45.3092 45.15C49.2087 44.7293 52.297 43.8575 54.761 41.8885C55.861 41.0085 56.7878 40.101 57.511 39.023C58.248 37.9285 58.7155 36.746 59.0125 35.3848C59.5625 32.8575 59.5625 29.4667 59.5625 24.5662V24.063C59.5625 19.036 59.5625 15.0045 59.0317 11.8392C58.4735 8.51725 57.291 5.8855 54.761 3.8615C52.297 1.88975 49.2087 1.02075 45.3092 0.60275C41.4537 0.1875 36.501 0.1875 30.1292 0.1875H29.8708Z" fill="#F44336"/>
</svg>
