<svg width="64" height="64" viewBox="0 0 64 64" fill="none" xmlns="http://www.w3.org/2000/svg">
<path d="M23.2917 63.6667L22.0251 53.5334C21.3389 53.2695 20.6929 52.9528 20.087 52.5834C19.4812 52.2139 18.8869 51.8181 18.3042 51.3959L8.88338 55.3542L0.175049 40.3125L8.32922 34.1375C8.27644 33.7681 8.25005 33.4124 8.25005 33.0704V30.9329C8.25005 30.5888 8.27644 30.232 8.32922 29.8625L0.175049 23.6875L8.88338 8.64587L18.3042 12.6042C18.8848 12.182 19.4917 11.7862 20.125 11.4167C20.7584 11.0473 21.3917 10.7306 22.0251 10.4667L23.2917 0.333374H40.7084L41.975 10.4667C42.6612 10.7306 43.3082 11.0473 43.9162 11.4167C44.5242 11.7862 45.1174 12.182 45.6959 12.6042L55.1167 8.64587L63.825 23.6875L55.6709 29.8625C55.7237 30.232 55.75 30.5888 55.75 30.9329V33.0672C55.75 33.4113 55.6973 33.7681 55.5917 34.1375L63.7459 40.3125L55.0375 55.3542L45.6959 51.3959C45.1153 51.8181 44.5084 52.2139 43.875 52.5834C43.2417 52.9528 42.6084 53.2695 41.975 53.5334L40.7084 63.6667H23.2917ZM32.1584 43.0834C35.2195 43.0834 37.832 42.0014 39.9959 39.8375C42.1598 37.6737 43.2417 35.0611 43.2417 32C43.2417 28.9389 42.1598 26.3264 39.9959 24.1625C37.832 21.9986 35.2195 20.9167 32.1584 20.9167C29.0445 20.9167 26.4183 21.9986 24.2797 24.1625C22.1412 26.3264 21.0729 28.9389 21.0751 32C21.0772 35.0611 22.1464 37.6737 24.2829 39.8375C26.4193 42.0014 29.0445 43.0834 32.1584 43.0834Z" fill="#F44336"/>
</svg>
