<svg width="50" height="50" viewBox="0 0 50 50" fill="none" xmlns="http://www.w3.org/2000/svg">
<path fill-rule="evenodd" clip-rule="evenodd" d="M14 11.25C14 8.33262 15.1589 5.53473 17.2218 3.47182C19.2847 1.40892 22.0826 0.25 25 0.25C27.9174 0.25 30.7153 1.40892 32.7782 3.47182C34.8411 5.53473 36 8.33262 36 11.25C36 14.1674 34.8411 16.9653 32.7782 19.0282C30.7153 21.0911 27.9174 22.25 25 22.25C22.0826 22.25 19.2847 21.0911 17.2218 19.0282C15.1589 16.9653 14 14.1674 14 11.25ZM14 27.75C10.3533 27.75 6.85591 29.1987 4.27728 31.7773C1.69866 34.3559 0.25 37.8533 0.25 41.5C0.25 43.688 1.11919 45.7865 2.66637 47.3336C4.21354 48.8808 6.31196 49.75 8.5 49.75H41.5C43.688 49.75 45.7865 48.8808 47.3336 47.3336C48.8808 45.7865 49.75 43.688 49.75 41.5C49.75 37.8533 48.3013 34.3559 45.7227 31.7773C43.1441 29.1987 39.6467 27.75 36 27.75H14Z" fill="#F44336"/>
</svg>
